<?xml version="1.0" encoding="UTF-8" standalone="no"?>
<svg
   width="32px"
   height="32px"
   viewBox="0 0 32 32"
   version="1.1"
   id="svg27"
   sodipodi:docname="14312048921548329629.svg"
   inkscape:version="1.2.1 (8a69933317, 2022-10-28, custom)"
   xmlns:inkscape="http://www.inkscape.org/namespaces/inkscape"
   xmlns:sodipodi="http://sodipodi.sourceforge.net/DTD/sodipodi-0.dtd"
   xmlns="http://www.w3.org/2000/svg"
   xmlns:svg="http://www.w3.org/2000/svg"
   xmlns:sketch="http://www.bohemiancoding.com/sketch/ns">
  <sodipodi:namedview
     id="namedview29"
     pagecolor="#505050"
     bordercolor="#ffffff"
     borderopacity="1"
     inkscape:showpageshadow="0"
     inkscape:pageopacity="0"
     inkscape:pagecheckerboard="1"
     inkscape:deskcolor="#505050"
     showgrid="false"
     inkscape:zoom="24.625"
     inkscape:cx="16.020305"
     inkscape:cy="16.020305"
     inkscape:window-width="1920"
     inkscape:window-height="1016"
     inkscape:window-x="0"
     inkscape:window-y="0"
     inkscape:window-maximized="1"
     inkscape:current-layer="svg27" />
  <!-- Generator: Sketch 3.0.3 (7891) - http://www.bohemiancoding.com/sketch -->
  <title
     id="title18">icon 52 barometer</title>
  <desc
     id="desc20">Created with Sketch.</desc>
  <defs
     id="defs22" />
  <g
     id="Page-1"
     stroke="none"
     stroke-width="1"
     fill="none"
     fill-rule="evenodd"
     sketch:type="MSPage"
     transform="matrix(1.1099701,0,0,1.1099701,-2.3145067,-2.3145066)"
     style="fill:#ffffff;fill-opacity:1">
    <g
       id="icon-52-barometer"
       sketch:type="MSArtboardGroup"
       fill="#000000"
       style="fill:#ffffff;fill-opacity:1">
      <path
         d="M 17.891801,22.422938 C 18.560159,22.871679 19,23.634474 19,24.5 c 0,0.171233 -0.01722,0.338445 -0.05001,0.5 h 10.281833 v 0 C 29.729306,23.592495 30,22.077859 30,20.5 30,13.044156 23.955845,7 16.5,7 9.0441555,7 3,13.044156 3,20.5 3,22.077859 3.270694,23.592495 3.7681756,25 H 14.050009 v 0 C 14.017215,24.838445 14,24.671233 14,24.5 c 0,-0.865526 0.439841,-1.628321 1.108199,-2.077062 L 16.5,15 Z M 16.5,26 C 17.328427,26 18,25.328427 18,24.5 18,23.671573 17.328427,23 16.5,23 15.671573,23 15,23.671573 15,24.5 c 0,0.828427 0.671573,1.5 1.5,1.5 z m 0,-18 C 16.223858,8 16,8.2150574 16,8.4904785 V 11.509522 C 16,11.780405 16.231934,12 16.5,12 16.776142,12 17,11.784943 17,11.509522 V 8.4904785 C 17,8.2195947 16.768066,8 16.5,8 Z m 6.761396,2.196911 c -0.223404,-0.162313 -0.530916,-0.119908 -0.692805,0.102913 l -1.774549,2.442457 c -0.159221,0.219149 -0.100657,0.533132 0.116213,0.690698 0.223404,0.162312 0.530916,0.119907 0.692804,-0.102913 l 1.774549,-2.442457 c 0.159222,-0.21915 0.100658,-0.533133 -0.116212,-0.690698 z m 4.178772,5.751587 c -0.08533,-0.262627 -0.35904,-0.409072 -0.620981,-0.323962 l -2.87128,0.932935 c -0.257626,0.08371 -0.394802,0.372148 -0.311965,0.627095 0.08533,0.262627 0.359041,0.409071 0.620982,0.323962 l 2.87128,-0.932936 c 0.257626,-0.08371 0.394801,-0.372148 0.311964,-0.627094 z m 0,7.109352 c 0.08533,-0.262627 -0.05002,-0.541985 -0.311964,-0.627094 l -2.87128,-0.932936 c -0.257626,-0.08371 -0.538145,0.06902 -0.620982,0.323962 -0.08533,0.262627 0.05002,0.541985 0.311965,0.627094 l 2.87128,0.932936 c 0.257626,0.08371 0.538144,-0.06902 0.620981,-0.323962 z m -21.8803364,0 c 0.085333,0.262627 0.3590402,0.409072 0.6209813,0.323962 L 9.0520934,22.448876 C 9.3097191,22.365169 9.4468947,22.076728 9.3640576,21.821782 9.278725,21.559155 9.0050174,21.41271 8.7430764,21.49782 l -2.8712805,0.932936 c -0.2576258,0.08371 -0.3948014,0.372148 -0.3119643,0.627094 z m 0,-7.109352 c -0.085333,0.262627 0.050023,0.541984 0.3119643,0.627094 l 2.8712805,0.932936 c 0.2576258,0.08371 0.5381442,-0.06902 0.6209812,-0.323962 0.085333,-0.262627 -0.050023,-0.541985 -0.3119642,-0.627095 L 6.1808129,15.624536 c -0.2576259,-0.08371 -0.5381443,0.06901 -0.6209813,0.323962 z m 4.1787725,-5.751587 c -0.2234039,0.162312 -0.278101,0.467877 -0.1162125,0.690698 l 1.7745484,2.442457 c 0.159222,0.21915 0.475935,0.260478 0.692805,0.102913 0.223404,-0.162313 0.278101,-0.467878 0.116213,-0.690698 L 10.431409,10.299824 C 10.272187,10.080674 9.9554743,10.039345 9.7386041,10.196911 Z"
         id="barometer"
         sketch:type="MSShapeGroup"
         style="fill:#ffffff;fill-opacity:1" />
    </g>
  </g>
</svg>
